<svg fill="none" height="58" viewBox="0 0 47 58" width="47" xmlns="http://www.w3.org/2000/svg" xmlns:xlink="http://www.w3.org/1999/xlink"><linearGradient id="a"><stop offset="0" stop-color="#ff9700"/><stop offset=".21" stop-color="#ff9a05"/><stop offset=".46" stop-color="#ffa314"/><stop offset=".75" stop-color="#ffb32e"/><stop offset="1" stop-color="#ffc54b"/></linearGradient><linearGradient id="b" gradientUnits="userSpaceOnUse" x1="24.4994" x2="12.4246" xlink:href="#a" y1="17.191" y2=".638746"/><linearGradient id="c" gradientUnits="userSpaceOnUse" x1="22.1032" x2="34.1781" xlink:href="#a" y1="29.1895" y2="45.7418"/><linearGradient id="d" gradientUnits="userSpaceOnUse" x1="29.3139" x2="45.857" xlink:href="#a" y1="24.386" y2="12.3153"/><linearGradient id="e" gradientUnits="userSpaceOnUse" x1="17.3151" x2=".762824" xlink:href="#a" y1="21.9796" y2="34.0544"/><linearGradient id="f"><stop offset="0" stop-color="#ff8000"/><stop offset=".1" stop-color="#ff8000" stop-opacity=".98"/><stop offset=".22" stop-color="#ff8100" stop-opacity=".92"/><stop offset=".36" stop-color="#ff8400" stop-opacity=".82"/><stop offset=".51" stop-color="#ff8700" stop-opacity=".68"/><stop offset=".66" stop-color="#ff8b00" stop-opacity=".5"/><stop offset=".82" stop-color="#ff9000" stop-opacity=".28"/><stop offset=".99" stop-color="#ff9600" stop-opacity=".02"/><stop offset="1" stop-color="#ff9700" stop-opacity="0"/></linearGradient><radialGradient id="g" cx="0" cy="0" gradientTransform="matrix(-31.79272812 -11.88048982 11.88048982 -31.79272812 22.9016 22.9968)" gradientUnits="userSpaceOnUse" r="1" xlink:href="#f"/><radialGradient id="h" cx="0" cy="0" gradientTransform="matrix(-31.79272812 -11.88048982 11.88048982 -31.79272812 22.9017 22.9969)" gradientUnits="userSpaceOnUse" r="1" xlink:href="#f"/><radialGradient id="i" cx="0" cy="0" gradientTransform="matrix(-31.79272812 -11.88048982 11.88048982 -31.79272812 22.9016 22.9969)" gradientUnits="userSpaceOnUse" r="1" xlink:href="#f"/><radialGradient id="j" cx="0" cy="0" gradientTransform="matrix(-31.79272812 -11.88048982 11.88048982 -31.79272812 22.9017 22.997)" gradientUnits="userSpaceOnUse" r="1" xlink:href="#f"/><linearGradient id="k"><stop offset="0" stop-color="#ff4e0d"/><stop offset=".1" stop-color="#ff4f0c" stop-opacity=".98"/><stop offset=".22" stop-color="#ff530b" stop-opacity=".92"/><stop offset=".36" stop-color="#ff5b0a" stop-opacity=".82"/><stop offset=".51" stop-color="#ff6508" stop-opacity=".68"/><stop offset=".66" stop-color="#ff7206" stop-opacity=".5"/><stop offset=".82" stop-color="#ff8203" stop-opacity=".28"/><stop offset=".99" stop-color="#ff9500" stop-opacity=".02"/><stop offset="1" stop-color="#ff9700" stop-opacity="0"/></linearGradient><radialGradient id="l" cx="0" cy="0" gradientTransform="matrix(-29.42279288 -10.99487877 10.99487877 -29.42279288 22.1437 26.482)" gradientUnits="userSpaceOnUse" r="1" xlink:href="#k"/><radialGradient id="m" cx="0" cy="0" gradientTransform="matrix(-26.28473633 -9.82223172 9.82223172 -26.28473633 23.3584 23.2319)" gradientUnits="userSpaceOnUse" r="1" xlink:href="#k"/><radialGradient id="n" cx="0" cy="0" gradientTransform="matrix(-26.28473633 -9.82223172 9.82223172 -26.28473633 23.3584 23.2316)" gradientUnits="userSpaceOnUse" r="1" xlink:href="#k"/><radialGradient id="o" cx="0" cy="0" gradientTransform="matrix(-34.2563367 -12.80110527 12.80110527 -34.2563367 29.0819 25.3703)" gradientUnits="userSpaceOnUse" r="1" xlink:href="#k"/><linearGradient id="p"><stop offset="0" stop-color="#ffc54b"/><stop offset=".21" stop-color="#ffc145"/><stop offset=".46" stop-color="#ffb836"/><stop offset=".75" stop-color="#ffa81c"/><stop offset="1" stop-color="#ff9700"/></linearGradient><linearGradient id="q" gradientUnits="userSpaceOnUse" x1="27.5898" x2="12.7998" xlink:href="#p" y1="13.5898" y2="8.06978"/><linearGradient id="r" gradientUnits="userSpaceOnUse" x1="33.7398" x2="18.9598" xlink:href="#p" y1="38.2499" y2="32.7299"/><linearGradient id="s" gradientUnits="userSpaceOnUse" x1="43.5098" x2="27.9998" xlink:href="#p" y1="23.2497" y2="17.4497"/><linearGradient id="t" gradientUnits="userSpaceOnUse" x1="18.5499" x2="3.0299" xlink:href="#p" y1="28.8697" y2="23.0697"/><linearGradient id="u" gradientUnits="userSpaceOnUse" x1="18.2158" x2="15.0592" xlink:href="#a" y1="26.5944" y2="46.8403"/><linearGradient id="v" gradientUnits="userSpaceOnUse" x1="28.4061" x2="31.5687" xlink:href="#a" y1="19.8006" y2="-.432488"/><linearGradient id="w" gradientUnits="userSpaceOnUse" x1="19.904" x2="-.338459" xlink:href="#a" y1="18.1101" y2="14.9441"/><linearGradient id="x" gradientUnits="userSpaceOnUse" x1="26.6875" x2="46.9334" xlink:href="#a" y1="28.3004" y2="31.4571"/><radialGradient id="y" cx="0" cy="0" gradientTransform="matrix(-31.79272812 -11.88048982 11.88048982 -31.79272812 22.9016 22.997)" gradientUnits="userSpaceOnUse" r="1" xlink:href="#f"/><radialGradient id="z" cx="0" cy="0" gradientTransform="matrix(-31.79272812 -11.88048982 11.88048982 -31.79272812 22.9015 22.997)" gradientUnits="userSpaceOnUse" r="1" xlink:href="#f"/><radialGradient id="A" cx="0" cy="0" gradientTransform="matrix(-31.10891282 -11.62495778 11.62495778 -31.10891282 26.5017 21.791)" gradientUnits="userSpaceOnUse" r="1" xlink:href="#k"/><radialGradient id="B" cx="0" cy="0" gradientTransform="matrix(-27.68983628 -10.34729756 10.34729756 -27.68983628 21.271 23.7325)" gradientUnits="userSpaceOnUse" r="1" xlink:href="#k"/><radialGradient id="C" cx="0" cy="0" gradientTransform="matrix(-31.37119814 -11.72297007 11.72297007 -31.37119814 27.2739 25.5809)" gradientUnits="userSpaceOnUse" r="1" xlink:href="#k"/><radialGradient id="D" cx="0" cy="0" gradientTransform="matrix(-34.996356 -13.07763995 13.07763995 -34.996356 16.2963 20.39)" gradientUnits="userSpaceOnUse" r="1" xlink:href="#k"/><linearGradient id="E" gradientUnits="userSpaceOnUse" x1="21.31" x2="11.98" xlink:href="#p" y1="36.6299" y2="33.1499"/><linearGradient id="F" gradientUnits="userSpaceOnUse" x1="34.5599" x2="25.2299" xlink:href="#p" y1="13.1699" y2="9.68988"/><linearGradient id="G" gradientUnits="userSpaceOnUse" x1="20.86" x2="1.78998" xlink:href="#p" y1="20.0499" y2="12.9299"/><linearGradient id="H" gradientUnits="userSpaceOnUse" x1="44.7398" x2="25.6798" xlink:href="#p" y1="33.3896" y2="26.2696"/><linearGradient id="I"><stop offset="0" stop-color="#643800"/><stop offset=".47" stop-color="#5e3400"/><stop offset="1" stop-color="#512d00"/></linearGradient><radialGradient id="J" cx="0" cy="0" gradientTransform="matrix(-9.16125165 -3.4234293 3.4234293 -9.16125165 21.5825 28.0128)" gradientUnits="userSpaceOnUse" r="1" xlink:href="#I"/><linearGradient id="K" gradientUnits="userSpaceOnUse" x1="27.4968" x2="36.0499" y1="46.6791" y2="53.1416"><stop offset="0" stop-color="#366e0d"/><stop offset="1" stop-color="#76a550"/></linearGradient><linearGradient id="L"><stop offset="0" stop-color="#4b861c"/><stop offset="1" stop-color="#4b861c" stop-opacity="0"/></linearGradient><linearGradient id="M" gradientUnits="userSpaceOnUse" x1="65.5356" x2="15.5451" xlink:href="#L" y1="45.0305" y2="54.0523"/><linearGradient id="N" gradientUnits="userSpaceOnUse" x1="20.506" x2="26.4502" xlink:href="#L" y1="57.5341" y2="50.5596"/><linearGradient id="O"><stop offset="0" stop-color="#4b861c"/><stop offset="1" stop-color="#407817"/></linearGradient><linearGradient id="P" gradientUnits="userSpaceOnUse" x1="25.9783" x2="18.5885" xlink:href="#O" y1="51.1411" y2="57.5628"/><linearGradient id="Q" gradientUnits="userSpaceOnUse" x1="22.51" x2="36.3679" xlink:href="#L" y1="57.2174" y2="49.4495"/><linearGradient id="R" gradientUnits="userSpaceOnUse" x1="31.7389" x2="26.0435" xlink:href="#L" y1="55.1405" y2="53.9551"/><linearGradient id="S" gradientUnits="userSpaceOnUse" x1="27.394" x2="29.5294" xlink:href="#O" y1="53.7337" y2="56.1025"/><linearGradient id="T" gradientUnits="userSpaceOnUse" x1="34.7031" x2="29.9348" xlink:href="#L" y1="53.1076" y2="52.5508"/><linearGradient id="U" gradientUnits="userSpaceOnUse" x1="30.2001" x2="32.3399" xlink:href="#O" y1="51.1974" y2="53.5654"/><linearGradient id="V"><stop offset="0" stop-color="#4b861c"/><stop offset="1" stop-color="#76a550"/></linearGradient><linearGradient id="W" gradientUnits="userSpaceOnUse" x1="18.4804" x2="13.2319" xlink:href="#V" y1="43.0319" y2="50.6689"/><linearGradient id="X" gradientUnits="userSpaceOnUse" x1="8.68673" x2="19.9855" xlink:href="#L" y1="56.5218" y2="41.16"/><linearGradient id="Y" gradientUnits="userSpaceOnUse" x1="10.7826" x2="13.2688" xlink:href="#L" y1="50.8871" y2="47.5297"/><linearGradient id="Z" gradientUnits="userSpaceOnUse" x1="23.1" x2="23.03" xlink:href="#V" y1="43.6599" y2="59.1999"/><linearGradient id="aa"><stop offset="0" stop-color="#ffb900"/><stop offset=".21" stop-color="#ffb905"/><stop offset=".46" stop-color="#ffbc14"/><stop offset=".75" stop-color="#ffc02e"/><stop offset="1" stop-color="#ffc54b"/></linearGradient><linearGradient id="ab" gradientUnits="userSpaceOnUse" x1="24.2216" x2="41.3265" xlink:href="#aa" y1="29.317" y2="40.5954"/><linearGradient id="ac" gradientUnits="userSpaceOnUse" x1="22.3031" x2="5.20525" xlink:href="#aa" y1="17.2296" y2="5.95834"/><linearGradient id="ad" gradientUnits="userSpaceOnUse" x1="17.2312" x2="5.95289" xlink:href="#aa" y1="24.2349" y2="41.3398"/><linearGradient id="ae" gradientUnits="userSpaceOnUse" x1="29.3086" x2="40.5728" xlink:href="#aa" y1="22.3164" y2="5.21147"/><linearGradient id="af"><stop offset="0" stop-color="#ffb900"/><stop offset=".15" stop-color="#feba05"/><stop offset=".35" stop-color="#fdbe14"/><stop offset=".56" stop-color="#fbc52e"/><stop offset=".79" stop-color="#f8cf51"/><stop offset="1" stop-color="#f5da7a"/></linearGradient><radialGradient id="ag" cx="37.4401" cy="45.1201" gradientUnits="userSpaceOnUse" r="20.69" xlink:href="#af"/><radialGradient id="ah" cx="22.9401" cy="22.7202" gradientUnits="userSpaceOnUse" r="19.57" xlink:href="#af"/><radialGradient id="ai" cx=".37004" cy="33.8998" gradientUnits="userSpaceOnUse" r="14.74" xlink:href="#af"/><linearGradient id="aj"><stop offset="0" stop-color="#ff9700"/><stop offset=".1" stop-color="#ff9700" stop-opacity=".98"/><stop offset=".22" stop-color="#ff9700" stop-opacity=".92"/><stop offset=".36" stop-color="#ff9700" stop-opacity=".82"/><stop offset=".51" stop-color="#ff9700" stop-opacity=".68"/><stop offset=".66" stop-color="#ff9700" stop-opacity=".5"/><stop offset=".82" stop-color="#ff9700" stop-opacity=".28"/><stop offset=".99" stop-color="#ff9700" stop-opacity=".02"/><stop offset="1" stop-color="#ff9700" stop-opacity="0"/></linearGradient><radialGradient id="ak" cx="26.9" cy="28.8202" gradientUnits="userSpaceOnUse" r="12.21" xlink:href="#aj"/><radialGradient id="al" cx="24.1599" cy="22.3398" gradientUnits="userSpaceOnUse" r="20.27" xlink:href="#aj"/><radialGradient id="am" cx="16.91" cy="23.06" gradientUnits="userSpaceOnUse" r="18.21" xlink:href="#aj"/><radialGradient id="an" cx="24.1601" cy="22.3398" gradientUnits="userSpaceOnUse" r="20.27" xlink:href="#aj"/><linearGradient id="ao"><stop offset="0" stop-color="#f5da7a"/><stop offset=".27" stop-color="#f6d774"/><stop offset=".61" stop-color="#f9d065"/><stop offset=".99" stop-color="#fec54b"/><stop offset="1" stop-color="#ffc54b"/></linearGradient><linearGradient id="ap" gradientUnits="userSpaceOnUse" x1="22.5701" x2="38.3601" xlink:href="#ao" y1="33.7498" y2="33.7498"/><linearGradient id="aq" gradientUnits="userSpaceOnUse" x1="8.16995" x2="23.9599" xlink:href="#ao" y1="12.8" y2="12.8"/><linearGradient id="ar" gradientUnits="userSpaceOnUse" x1="4.27001" x2="20.84" xlink:href="#ao" y1="30.2698" y2="30.2698"/><linearGradient id="as" gradientUnits="userSpaceOnUse" x1="25.69" x2="42.26" xlink:href="#ao" y1="16.28" y2="16.28"/><linearGradient id="at" gradientUnits="userSpaceOnUse" x1="26.86" x2="22.73" xlink:href="#aa" y1="18.32" y2="-1.74"/><linearGradient id="au" gradientUnits="userSpaceOnUse" x1="19.67" x2="23.79" xlink:href="#aa" y1="28.2302" y2="48.2902"/><linearGradient id="av" gradientUnits="userSpaceOnUse" x1="28.21" x2="48.28" xlink:href="#aa" y1="26.8702" y2="22.7502"/><linearGradient id="aw" gradientUnits="userSpaceOnUse" x1="18.32" x2="-1.75" xlink:href="#aa" y1="19.6799" y2="23.7999"/><radialGradient id="ax" cx="22.94" cy="22.7199" gradientUnits="userSpaceOnUse" r="19.57" xlink:href="#af"/><radialGradient id="ay" cx="14.14" cy="46.8901" gradientUnits="userSpaceOnUse" r="17.05" xlink:href="#af"/><radialGradient id="az" cx="50.35" cy="22.83" gradientUnits="userSpaceOnUse" r="20.52" xlink:href="#af"/><radialGradient id="aA" cx="5.76" cy="15.83" gradientUnits="userSpaceOnUse" r="12.01" xlink:href="#af"/><radialGradient id="aB" cx="24.16" cy="22.3398" gradientUnits="userSpaceOnUse" r="20.27" xlink:href="#aj"/><radialGradient id="aC" cx="24.16" cy="22.3399" gradientUnits="userSpaceOnUse" r="20.27" xlink:href="#aj"/><radialGradient id="aD" cx="24.16" cy="22.3402" gradientUnits="userSpaceOnUse" r="20.27" xlink:href="#aj"/><linearGradient id="aE" gradientUnits="userSpaceOnUse" x1="20.39" x2="30.34" xlink:href="#ao" y1="9.96977" y2="9.96977"/><linearGradient id="aF" gradientUnits="userSpaceOnUse" x1="16.1901" x2="26.1401" xlink:href="#ao" y1="36.58" y2="36.58"/><linearGradient id="aG" gradientUnits="userSpaceOnUse" x1="26.61" x2="46.96" xlink:href="#ao" y1="25.3398" y2="25.3398"/><linearGradient id="aH" gradientUnits="userSpaceOnUse" x1="-.42" x2="19.93" xlink:href="#ao" y1="21.2101" y2="21.2101"/><linearGradient id="aI"><stop offset="0" stop-color="#ffe259"/><stop offset=".1" stop-color="#fee159" stop-opacity=".98"/><stop offset=".22" stop-color="#fee15b" stop-opacity=".92"/><stop offset=".36" stop-color="#fde05f" stop-opacity=".82"/><stop offset=".51" stop-color="#fbdf63" stop-opacity=".68"/><stop offset=".66" stop-color="#f9dd69" stop-opacity=".5"/><stop offset=".82" stop-color="#f7dc70" stop-opacity=".28"/><stop offset=".99" stop-color="#f5da79" stop-opacity=".02"/><stop offset="1" stop-color="#f5da7a" stop-opacity="0"/></linearGradient><radialGradient id="aJ" cx="0" cy="0" gradientTransform="matrix(.87436147 -.74282522 2.80730051 3.30440504 12.3165 10.8117)" gradientUnits="userSpaceOnUse" r="1" xlink:href="#aI"/><radialGradient id="aK" cx="0" cy="0" gradientTransform="matrix(.85278625 -.7221924 1.85844177 2.19450329 18.4375 43.4683)" gradientUnits="userSpaceOnUse" r="1" xlink:href="#aI"/><radialGradient id="aL" cx="0" cy="0" gradientTransform="matrix(1.12450653 .22755738 -.85998956 4.24975844 27.1948 8.15739)" gradientUnits="userSpaceOnUse" r="1" xlink:href="#aI"/><radialGradient id="aM" cx="0" cy="0" gradientTransform="matrix(.69509119 .91276805 -3.449552 2.62690308 36.9952 15.2291)" gradientUnits="userSpaceOnUse" r="1" xlink:href="#aI"/><radialGradient id="aN" cx="28.3401" cy="31.7801" gradientUnits="userSpaceOnUse" r="18.37"><stop offset="0" stop-color="#800805" stop-opacity=".4"/><stop offset=".33" stop-color="#780d04" stop-opacity=".37"/><stop offset=".73" stop-color="#641d02" stop-opacity=".28"/><stop offset="1" stop-color="#512d00" stop-opacity=".2"/></radialGradient><radialGradient id="aO" cx="23.2101" cy="18.1701" gradientUnits="userSpaceOnUse" r="9.78"><stop offset="0" stop-color="#643800"/><stop offset=".3" stop-color="#5e3500"/><stop offset=".67" stop-color="#4f2c00"/><stop offset="1" stop-color="#3c2200"/></radialGradient><linearGradient id="aP" gradientUnits="userSpaceOnUse" x1="25.3901" x2="13.4701" xlink:href="#I" y1="28.5004" y2="-4.40961"/><linearGradient id="aQ" gradientUnits="userSpaceOnUse" x1="26.1801" x2="14.2701" xlink:href="#I" y1="28.21" y2="-4.69998"/><linearGradient id="aR" gradientUnits="userSpaceOnUse" x1="27.0201" x2="15.1001" xlink:href="#I" y1="27.9103" y2="-4.99968"/><linearGradient id="aS" gradientUnits="userSpaceOnUse" x1="20.4401" x2="8.52007" xlink:href="#I" y1="30.29" y2="-2.61998"/><linearGradient id="aT" gradientUnits="userSpaceOnUse" x1="18.3401" x2="6.42012" xlink:href="#I" y1="31.0501" y2="-1.85988"/><linearGradient id="aU" gradientUnits="userSpaceOnUse" x1="27.8301" x2="15.9101" xlink:href="#I" y1="27.6103" y2="-5.29972"/><linearGradient id="aV" gradientUnits="userSpaceOnUse" x1="28.6401" x2="16.7301" xlink:href="#I" y1="27.3202" y2="-5.58977"/><linearGradient id="aW" gradientUnits="userSpaceOnUse" x1="24.5801" x2="12.6601" xlink:href="#I" y1="28.7904" y2="-4.11957"/><linearGradient id="aX" gradientUnits="userSpaceOnUse" x1="26.8631" x2="14.9431" xlink:href="#I" y1="27.9612" y2="-4.94876"/><linearGradient id="aY" gradientUnits="userSpaceOnUse" x1="27.73" x2="15.81" xlink:href="#I" y1="27.6504" y2="-5.25955"/><linearGradient id="aZ" gradientUnits="userSpaceOnUse" x1="23.1004" x2="11.1904" xlink:href="#I" y1="29.3233" y2="-3.58672"/><linearGradient id="a0" gradientUnits="userSpaceOnUse" x1="23.757" x2="11.847" xlink:href="#I" y1="29.087" y2="-3.82303"/><linearGradient id="a1" gradientUnits="userSpaceOnUse" x1="22.9486" x2="11.0286" xlink:href="#I" y1="29.3822" y2="-3.52778"/><linearGradient id="a2" gradientUnits="userSpaceOnUse" x1="22.1404" x2="10.2204" xlink:href="#I" y1="29.6874" y2="-3.22256"/><linearGradient id="a3" gradientUnits="userSpaceOnUse" x1="25.3886" x2="13.4686" xlink:href="#I" y1="28.494" y2="-4.41599"/><linearGradient id="a4" gradientUnits="userSpaceOnUse" x1="30.0409" x2="18.1209" xlink:href="#I" y1="26.8045" y2="-6.10551"/><linearGradient id="a5" gradientUnits="userSpaceOnUse" x1="32.369" x2="20.4491" xlink:href="#I" y1="25.9695" y2="-6.94055"/><linearGradient id="a6" gradientUnits="userSpaceOnUse" x1="34.6875" x2="22.7675" xlink:href="#I" y1="25.134" y2="-7.77603"/><linearGradient id="a7" gradientUnits="userSpaceOnUse" x1="20.7416" x2="8.82158" xlink:href="#I" y1="30.1865" y2="-2.7235"/><linearGradient id="a8" gradientUnits="userSpaceOnUse" x1="18.4214" x2="6.50134" xlink:href="#I" y1="31.0278" y2="-1.88222"/><linearGradient id="a9" gradientUnits="userSpaceOnUse" x1="16.0925" x2="4.17246" xlink:href="#I" y1="31.864" y2="-1.04602"/><linearGradient id="ba" gradientUnits="userSpaceOnUse" x1="22.5385" x2="10.6185" xlink:href="#I" y1="29.5356" y2="-3.37435"/><linearGradient id="bb" gradientUnits="userSpaceOnUse" x1="21.1002" x2="9.18019" xlink:href="#I" y1="30.051" y2="-2.85902"/><linearGradient id="bc" gradientUnits="userSpaceOnUse" x1="19.66" x2="7.73999" xlink:href="#I" y1="30.5703" y2="-2.33965"/><linearGradient id="bd" gradientUnits="userSpaceOnUse" x1="28.2721" x2="16.3621" xlink:href="#I" y1="27.4545" y2="-5.45549"/><linearGradient id="be" gradientUnits="userSpaceOnUse" x1="29.7129" x2="17.7929" xlink:href="#I" y1="26.9295" y2="-5.98057"/><linearGradient id="bf" gradientUnits="userSpaceOnUse" x1="31.1336" x2="19.2237" xlink:href="#I" y1="26.4049" y2="-6.50509"/><linearGradient id="bg" gradientUnits="userSpaceOnUse" x1="29.3201" x2="17.4001" xlink:href="#I" y1="27.0704" y2="-5.82961"/><linearGradient id="bh" gradientUnits="userSpaceOnUse" x1="32.13" x2="20.21" xlink:href="#I" y1="26.0604" y2="-6.84961"/><linearGradient id="bi" gradientUnits="userSpaceOnUse" x1="34.6501" x2="22.7401" xlink:href="#I" y1="25.1404" y2="-7.7696"/><linearGradient id="bj" gradientUnits="userSpaceOnUse" x1="21.463" x2="9.54301" xlink:href="#I" y1="29.9216" y2="-2.98844"/><linearGradient id="bk" gradientUnits="userSpaceOnUse" x1="18.6533" x2="6.74333" xlink:href="#I" y1="30.9414" y2="-1.96861"/><linearGradient id="bl" gradientUnits="userSpaceOnUse" x1="16.1323" x2="4.21228" xlink:href="#I" y1="31.8519" y2="-1.05806"/><linearGradient id="bm" gradientUnits="userSpaceOnUse" x1="26.0577" x2="14.1377" xlink:href="#I" y1="28.2626" y2="-4.64736"/><linearGradient id="bn" gradientUnits="userSpaceOnUse" x1="26.3907" x2="14.4807" xlink:href="#I" y1="28.1239" y2="-4.77608"/><linearGradient id="bo" gradientUnits="userSpaceOnUse" x1="26.7268" x2="14.8068" xlink:href="#I" y1="28.0142" y2="-4.89578"/><linearGradient id="bp" gradientUnits="userSpaceOnUse" x1="24.7191" x2="12.7991" xlink:href="#I" y1="28.7401" y2="-4.16989"/><linearGradient id="bq" gradientUnits="userSpaceOnUse" x1="24.3868" x2="12.4668" xlink:href="#I" y1="28.8616" y2="-4.04843"/><linearGradient id="br" gradientUnits="userSpaceOnUse" x1="24.0502" x2="12.1402" xlink:href="#I" y1="28.9747" y2="-3.93528"/><linearGradient id="bs" gradientUnits="userSpaceOnUse" x1="21.8556" x2="9.93554" xlink:href="#I" y1="29.7811" y2="-3.12888"/><linearGradient id="bt" gradientUnits="userSpaceOnUse" x1="20.0792" x2="8.15917" xlink:href="#I" y1="30.4232" y2="-2.48676"/><linearGradient id="bu" gradientUnits="userSpaceOnUse" x1="18.3028" x2="6.38277" xlink:href="#I" y1="31.065" y2="-1.84499"/><linearGradient id="bv" gradientUnits="userSpaceOnUse" x1="28.9344" x2="17.0144" xlink:href="#I" y1="27.2189" y2="-5.69109"/><linearGradient id="bw" gradientUnits="userSpaceOnUse" x1="30.7029" x2="18.7929" xlink:href="#I" y1="26.5668" y2="-6.34316"/><linearGradient id="bx" gradientUnits="userSpaceOnUse" x1="32.4702" x2="20.5602" xlink:href="#I" y1="25.9294" y2="-6.98061"/><linearGradient id="by" gradientUnits="userSpaceOnUse" x1="19.1093" x2="7.18933" xlink:href="#I" y1="30.7732" y2="-2.13684"/><linearGradient id="bz" gradientUnits="userSpaceOnUse" x1="16.4715" x2="4.55148" xlink:href="#I" y1="31.7266" y2="-1.18336"/><linearGradient id="bA" gradientUnits="userSpaceOnUse" x1="31.5499" x2="19.6299" xlink:href="#I" y1="26.27" y2="-6.63998"/><linearGradient id="bB" gradientUnits="userSpaceOnUse" x1="34.2201" x2="22.3001" xlink:href="#I" y1="25.3001" y2="-7.60988"/><linearGradient id="bC" gradientUnits="userSpaceOnUse" x1="30.454" x2="18.534" xlink:href="#I" y1="26.6586" y2="-6.25135"/><linearGradient id="bD" gradientUnits="userSpaceOnUse" x1="32.303" x2="20.3829" xlink:href="#I" y1="25.9888" y2="-6.91118"/><linearGradient id="bE" gradientUnits="userSpaceOnUse" x1="23.97" x2="12.05" xlink:href="#I" y1="29.0104" y2="-3.89956"/><linearGradient id="bF" gradientUnits="userSpaceOnUse" x1="28.5799" x2="16.6599" xlink:href="#I" y1="27.3404" y2="-5.56962"/><linearGradient id="bG" gradientUnits="userSpaceOnUse" x1="24.55" x2="12.64" xlink:href="#I" y1="28.8001" y2="-4.10994"/><linearGradient id="bH" gradientUnits="userSpaceOnUse" x1="20.51" x2="8.58998" xlink:href="#I" y1="30.2701" y2="-2.63992"/><linearGradient id="bI" gradientUnits="userSpaceOnUse" x1="17.9501" x2="6.03004" xlink:href="#I" y1="31.1902" y2="-1.7198"/><linearGradient id="bJ" gradientUnits="userSpaceOnUse" x1="22.0701" x2="10.1501" xlink:href="#I" y1="29.7002" y2="-3.20982"/><linearGradient id="bK" gradientUnits="userSpaceOnUse" x1="26.46" x2="14.54" xlink:href="#I" y1="28.1101" y2="-4.79989"/><linearGradient id="bL" gradientUnits="userSpaceOnUse" x1="32.8499" x2="20.9299" xlink:href="#I" y1="25.8" y2="-7.10997"/><linearGradient id="bM" gradientUnits="userSpaceOnUse" x1="30.0201" x2="18.1001" xlink:href="#I" y1="26.8205" y2="-6.08953"/><linearGradient id="bN" gradientUnits="userSpaceOnUse" x1="28.95" x2="17.03" xlink:href="#I" y1="27.21" y2="-5.69995"/><linearGradient id="bO" gradientUnits="userSpaceOnUse" x1="27.7001" x2="15.7801" xlink:href="#I" y1="27.6601" y2="-5.24989"/><linearGradient id="bP" gradientUnits="userSpaceOnUse" x1="24.91" x2="12.99" xlink:href="#I" y1="28.6701" y2="-4.23989"/><linearGradient id="bQ" gradientUnits="userSpaceOnUse" x1="25.7801" x2="13.8601" xlink:href="#I" y1="28.3601" y2="-4.54989"/><linearGradient id="bR" gradientUnits="userSpaceOnUse" x1="22.99" x2="11.07" xlink:href="#I" y1="29.3701" y2="-3.53989"/><linearGradient id="bS" gradientUnits="userSpaceOnUse" x1="26.1501" x2="14.2402" xlink:href="#I" y1="28.2202" y2="-4.68981"/><linearGradient id="bT" gradientUnits="userSpaceOnUse" x1="23.0299" x2="11.1099" xlink:href="#I" y1="29.35" y2="-3.55999"/><linearGradient id="bU" gradientUnits="userSpaceOnUse" x1="19.98" x2="8.06" xlink:href="#I" y1="30.4604" y2="-2.44956"/><linearGradient id="bV" gradientUnits="userSpaceOnUse" x1="21.9801" x2="10.0701" xlink:href="#I" y1="29.7302" y2="-3.17985"/><linearGradient id="bW" gradientUnits="userSpaceOnUse" x1="24.75" x2="12.83" xlink:href="#I" y1="28.7304" y2="-4.1796"/><linearGradient id="bX" gradientUnits="userSpaceOnUse" x1="27.95" x2="16.03" xlink:href="#I" y1="27.57" y2="-5.33995"/><linearGradient id="bY" gradientUnits="userSpaceOnUse" x1="32.8901" x2="20.9701" xlink:href="#I" y1="25.7804" y2="-7.12954"/><linearGradient id="bZ" gradientUnits="userSpaceOnUse" x1="17.0499" x2="5.1299" xlink:href="#I" y1="31.5204" y2="-1.38954"/><linearGradient id="b0" gradientUnits="userSpaceOnUse" x1="17.8399" x2="5.9199" xlink:href="#I" y1="31.2303" y2="-1.67974"/><linearGradient id="b1" gradientUnits="userSpaceOnUse" x1="33.64" x2="21.72" xlink:href="#I" y1="25.5103" y2="-7.39973"/><linearGradient id="b2" gradientUnits="userSpaceOnUse" x1="30.8401" x2="18.92" xlink:href="#I" y1="26.5202" y2="-6.38991"/><linearGradient id="b3" gradientUnits="userSpaceOnUse" x1="30.7299" x2="18.8199" xlink:href="#I" y1="26.5604" y2="-6.3496"/><linearGradient id="b4" gradientUnits="userSpaceOnUse" x1="28.0701" x2="16.1501" xlink:href="#I" y1="27.5301" y2="-5.37998"/><linearGradient id="b5" gradientUnits="userSpaceOnUse" x1="20.19" x2="8.27998" xlink:href="#I" y1="30.3804" y2="-2.5296"/><linearGradient id="b6" gradientUnits="userSpaceOnUse" x1="22.88" x2="10.9599" xlink:href="#I" y1="29.4101" y2="-3.49997"/><path d="m16.2499.789785c-2.88 4.349995-1.02 12.860015 2.48 16.850015s7.03-.68 7.03-.68-.19-12.49001-9.51-16.180015" fill="url(#b)"/><path d="m30.2998 45.5296c2.88-4.35 1.02-12.86-2.48-16.85-3.51-3.99-7.03.68-7.03.68s.19 12.49 9.51 16.18" fill="url(#c)"/><path d="m45.64 16.13c-4.35-2.88-12.86-1.02-16.85 2.48-3.99 3.51.68 7.03.68 7.03s12.49-.19 16.18-9.51" fill="url(#d)"/><path d="m.909902 30.1897c4.349998 2.88 12.859998 1.02 16.849998-2.48s-.68-7.03-.68-7.03-12.49.19-16.179998 9.51" fill="url(#e)"/><path d="m23.1299 19.0396c1.54-.61 2.6-2.01 2.6-2.01s-.19-12.48999-9.51-16.179991c-.02.03-.04.06-.06.09 4.98 4.610001 8.17 11.519991 6.97 18.099991z" fill="url(#g)"/><path d="m21.67 28.4497c-.58.5-.92.96-.92.96s.19 12.49 9.51 16.18c.01-.02.02-.04.04-.06-5.14-4.17-8.7-10.48-8.63-17.08z" fill="url(#h)"/><path d="m36.0799 22.9397c-3.2 1.05-5.99-.71-8.94-1.18.01 2.23 2.29 3.95 2.29 3.95s12.49-.19 16.18-9.51h-.01c-2 3.62-5.52 5.43-9.51 6.74z" fill="url(#i)"/><path d="m16.67 22.0197c.45-.15.93-.23 1.42-.26-.54-.64-1.04-1.02-1.04-1.02s-10.10001.16-14.81001 6.97c3.41-3.47 9.75001-3.77 14.43001-5.68z" fill="url(#j)"/><path d="m15.8699 1.43955c.7 4.19 1.89 9.70005 2.9 14.34005.2.45 3.06-1.52 3.18-1.85-1.5-4.19005-4.68-8.38005-4.38-12.52005-.42-.22-.85-.439999-1.32-.619999-.14.21-.26.419999-.37.649999z" fill="url(#l)"/><path d="m25.36 32.73c-.12.33-.9.41-.69.86 2.87 3.98 6.09 7.63 5.59 11.92h.03c.29-.43.54-.92.74-1.45-.12-4.62-1.77-9.25-5.67-11.33z" fill="url(#m)"/><path d="m39.86 17.4896c-2.82 1.56-6.61-.34-8.4 3.47.84.76 2.02.8 2.79.72 3.76-1.28 7.07-3.21 10.65-3.98.28-.49.53-1.01.74-1.56-.15-.1-.3-.19-.46-.27-.03 0-.07 0-.1 0-.9.41-4.21.88-5.23 1.62z" fill="url(#n)"/><path d="m15.56 28.5296c1.55-.17-1.93-1.3-2.67-2.32-2.9-2.2-6.66.87-10.01 1.85-1.11.26-1.41 1.22-1.63 2.33.06.04.13.07.19.11 2.27-1.76 11.35-1.23 14.12-1.97z" fill="url(#o)"/><path d="m16.2398.789785c-1.08 1.930005-1.29 4.160005-1.13 6.300005.17 2.15.69 4.27001 1.55 6.23001.41.99.9 1.95 1.5 2.82s1.27 1.72 2.11 2.2 1.83.54 2.73.15c.9-.36 1.74-1.06 2.37-1.82l-.1.29c-.05-1.59-.31-3.22-.68-4.79-.4-1.57-.91-3.12001-1.61-4.58001-.71-1.46-1.66-2.79-2.77-3.98-1.11-1.21-2.52-2.07-3.98-2.830005 1.54.580005 3.04 1.380005 4.28 2.520005 1.24 1.13 2.27 2.49 3.08 3.97.8 1.48 1.42 3.06001 1.84 4.69001s.71 3.28.79 4.99v.17l-.1.13c-.75.93-1.63 1.69-2.76 2.17-1.12.49-2.54.39-3.58-.26-1.06-.64-1.75-1.59-2.38-2.52-.63-.94-1.13-1.95-1.53-3-.8-2.09-1.23-4.30002-1.3-6.53001-.02-2.2.37-4.52 1.66-6.330005z" fill="url(#q)"/><path d="m30.2998 45.5299c1.08-1.93 1.29-4.16 1.13-6.3-.17-2.15-.69-4.27-1.55-6.23-.41-.99-.9-1.95-1.5-2.82s-1.27-1.72-2.11-2.2-1.83-.54-2.73-.15c-.9.36-1.74 1.06-2.37 1.82l.1-.29c.05 1.59.31 3.22.68 4.79.4 1.57.91 3.12 1.61 4.58.71 1.46 1.66 2.79 2.77 3.98 1.11 1.21 2.52 2.07 3.98 2.83-1.54-.58-3.04-1.38-4.28-2.52-1.24-1.13-2.27-2.49-3.08-3.97-.8-1.48-1.42-3.06-1.84-4.69s-.71-3.28-.79-4.99v-.17l.1-.13c.75-.93 1.63-1.69 2.76-2.17 1.12-.49 2.54-.39 3.58.26 1.06.64 1.75 1.59 2.38 2.52.63.94 1.13 1.95 1.53 3 .8 2.09 1.23 4.3 1.3 6.53.02 2.2-.37 4.52-1.66 6.33z" fill="url(#r)"/><path d="m45.6398 16.1297c-1.93-1.08-4.16-1.29-6.3-1.13-2.15.17-4.27.69-6.23 1.55-.99.41-1.95.9-2.82 1.5s-1.72 1.27-2.2 2.11-.54 1.83-.15 2.73c.36.9 1.06 1.74 1.82 2.37l-.29-.1c1.59-.05 3.22-.31 4.79-.68 1.57-.4 3.12-.91 4.58-1.61 1.46-.71 2.79-1.66 3.98-2.77 1.21-1.11 2.07-2.52 2.83-3.98-.58 1.54-1.38 3.04-2.52 4.28-1.13 1.24-2.49 2.27-3.97 3.08-1.48.8-3.06 1.42-4.69 1.84s-3.28.71-4.99.79h-.17l-.13-.1c-.93-.75-1.69-1.63-2.17-2.76-.49-1.12-.39-2.54.26-3.58.64-1.06 1.59-1.75 2.52-2.38.94-.63 1.95-1.13 3-1.53 2.09-.8 4.3-1.23 6.53-1.3 2.2-.02 4.52.37 6.33 1.66z" fill="url(#s)"/><path d="m.909902 30.1897c1.929998 1.08 4.159998 1.29 6.299998 1.13 2.15-.17 4.27-.69 6.23-1.55.99-.41 1.95-.9 2.82-1.5s1.72-1.27 2.2-2.11.54-1.83.15-2.73c-.36-.9-1.06-1.74-1.82-2.37l.29.1c-1.59.05-3.22.31-4.79.68-1.57.4-3.12.91-4.58 1.61-1.46.71-2.79 1.66-3.98 2.77-1.21 1.11-2.07 2.52-2.829998 3.99.579998-1.54 1.379998-3.04 2.519998-4.28 1.13-1.24 2.49-2.27 3.97-3.08 1.48-.8 3.06-1.42 4.69-1.84s3.28-.71 4.99-.79h.17l.13.1c.93.75 1.69 1.63 2.17 2.76.49 1.12.39 2.54-.26 3.58-.64 1.06-1.59 1.75-2.52 2.38-.94.63-1.95 1.13-3 1.53-2.09.8-4.3 1.23-6.53 1.3-2.2.02-4.52-.37-6.329998-1.66z" fill="url(#t)"/><path d="m12.4198 43.9397c5.11-1.04 9.82-8.37 10.16-13.67s-5.45-4.49-5.45-4.49-8.7 8.97-4.71 18.17" fill="url(#u)"/><path d="m34.12 2.37963c-5.11 1.04-9.82 8.36997-10.16 13.66997s5.45 4.49 5.45 4.49 8.7-8.97 4.71-18.16997" fill="url(#v)"/><path d="m2.48998 12.3097c1.04 5.11 8.37002 9.82 13.67002 10.16s4.49-5.45 4.49-5.45-8.97-8.70001-18.17002-4.71" fill="url(#w)"/><path d="m44.0499 34.0099c-1.0401-5.11-8.37-9.82-13.67-10.16s-4.49 5.45-4.49 5.45 8.97 8.7 18.17 4.71" fill="url(#x)"/><path d="m11.4099 40.1598c.02-.11.05-.22.09-.32 2.09-4.74 4.04-9.82 7.09-14.02-.84-.08-1.49.01-1.49.01s-6.42 6.63-5.69 14.33z" fill="url(#y)"/><path d="m26.8398 20.4297c1.3.34 2.53.17 2.53.17s8.7-8.97 4.71-18.17001h-.02c.66 7.03-1.61 13.70001-7.22 18.00001z" fill="url(#i)"/><path d="m20.59 18.9198c.1399-1.01.03-1.84.03-1.84s-8.97-8.70005-18.17005-4.71c0 .02.01.04.02.07 6.23.29 13.49005 2.01 18.12005 6.48z" fill="url(#j)"/><path d="m44.0198 34.0598c-.01-.05-.03-.11-.04-.16-6.59.87-14.82-.91-18.07-6.58-.19 1.09-.06 2.03-.06 2.03s8.97 8.7 18.17 4.71z" fill="url(#z)"/><path d="m22.06 32.4c.57-.53-3.23.87-2.99.21-.9.41-2.29-.86-2.66.13-1.73 3.17-4.3 7.01-4.13 10.84.05.12.09.24.14.36.16-.03.31-.07.46-.11.22-3.92 5.44-9.48 9.17-11.43z" fill="url(#A)"/><path d="m25.76 16.9696c.65.2399 3.71-.22 4.49-.31-.53-4.96.64-9.99005 4.37-12.89005-.12-.41-.27-.82-.44-1.23-4.46 3.12-6.67 9.73005-8.42 14.43005z" fill="url(#B)"/><path d="m2.89999 13.6297c4.04 2.17 9.28001 8.01 14.18001 7.04.45-.2.17-2 .17-2-2.9-2.2-10.42001-2.18-12.14001-6.55-.25-.27-.56-.39-.91-.4-.57.15-1.14.35-1.71.6.09.44.23.88.41 1.32z" fill="url(#C)"/><path d="m29.6198 29.6299c3.35 1.51 8.93 2.77 10.81 5.34 1.07-.12 2.16-.38 3.25-.81-3.61-2.35-17.33-13.11-14.06-4.52z" fill="url(#D)"/><path d="m12.42 43.9399c2.13-.6 3.85-2.03 5.26-3.66 1.4-1.64 2.53-3.51 3.31-5.51.41-.99.74-2.01.93-3.05s.32-2.11.06-3.05-.91-1.68-1.82-2.04c-.89-.38-1.98-.49-2.96-.39l.28-.14c-1.09 1.16-2.06 2.49-2.91 3.87-.83 1.39-1.56 2.84-2.1 4.38-.54 1.53-.8 3.14-.86 4.77-.07 1.64.32 3.24.81 4.82-.68-1.5-1.17-3.13-1.24-4.81-.08-1.68.16-3.37.62-4.99.49-1.61 1.16-3.17 2.02-4.61.86-1.45 1.82-2.81 2.97-4.09l.11-.12.16-.02c1.19-.12 2.35-.04 3.49.42 1.13.45 2.07 1.52 2.35 2.72.29 1.2.11 2.37-.1 3.46-.22 1.11-.58 2.18-1.03 3.2-.91 2.04-2.17 3.91-3.7 5.54-1.55 1.57-3.46 2.93-5.65 3.3z" fill="url(#E)"/><path d="m34.1199 2.37988c-2.13.6-3.85 2.03-5.26 3.66-1.4 1.64-2.53 3.51-3.31 5.51002-.41.99-.74 2.01-.93 3.05s-.32 2.11-.06 3.05.91 1.68 1.82 2.04c.89.38 1.98.49 2.96.39l-.28.14c1.09-1.16 2.06-2.49 2.91-3.87.83-1.39 1.56-2.84 2.1-4.38.54-1.53.8-3.14002.86-4.77002.07-1.64-.32-3.24-.81-4.82.68 1.5 1.17 3.13 1.24 4.81.08 1.68-.16 3.37002-.62 4.99002-.49 1.61-1.16 3.17-2.02 4.61-.86 1.45-1.82 2.81-2.97 4.09l-.11.12-.16.02c-1.19.12-2.35.04-3.49-.42-1.13-.45-2.07-1.52-2.35-2.72-.29-1.2-.11-2.37.1-3.46.22-1.11.58-2.18 1.03-3.2.91-2.04002 2.17-3.91002 3.7-5.54002 1.55-1.57 3.46-2.93 5.65-3.3z" fill="url(#F)"/><path d="m2.48998 12.3099c.6 2.13 2.03 3.85 3.66 5.26 1.64 1.4 3.51 2.53 5.51002 3.31.99.41 2.01.74 3.05.93s2.11.32 3.05.06 1.68-.91 2.04-1.82c.38-.89.49-1.98.39-2.96l.14.28c-1.16-1.09-2.49-2.06-3.87-2.91-1.39-.83-2.85-1.56-4.38-2.1s-3.14002-.8-4.77002-.86c-1.64-.07-3.24.32-4.82.81 1.5-.68 3.13-1.17 4.81-1.24 1.68-.08 3.37002.16 4.98002.62 1.61.49 3.17 1.16 4.61 2.02 1.45.86 2.81 1.82 4.09 2.97l.12.11.02.16c.12 1.19.04 2.35-.42 3.49-.45 1.13-1.52 2.07-2.72 2.35-1.2.29-2.37.11-3.46-.1-1.11-.22-2.18-.58-3.2-1.03-2.04002-.91-3.91002-2.17-5.54002-3.7-1.57-1.55-2.93-3.46-3.3-5.65z" fill="url(#G)"/><path d="m44.0498 34.0096c-.6-2.13-2.03-3.85-3.66-5.26-1.64-1.4-3.51-2.53-5.51-3.31-.99-.41-2.01-.74-3.05-.93s-2.11-.32-3.05-.06-1.68.91-2.04 1.82c-.38.89-.49 1.98-.39 2.96l-.14-.28c1.16 1.09 2.49 2.06 3.87 2.91 1.39.83 2.85 1.56 4.38 2.1 1.53.53 3.14.8 4.77.86 1.64.07 3.24-.32 4.82-.81-1.5.68-3.13 1.17-4.81 1.24-1.68.08-3.37-.16-4.98-.62-1.61-.49-3.17-1.16-4.61-2.02-1.45-.86-2.81-1.82-4.09-2.97l-.12-.11-.02-.16c-.12-1.19-.04-2.35.42-3.49.45-1.13 1.52-2.07 2.72-2.35 1.2-.29 2.37-.11 3.46.1 1.11.22 2.18.58 3.2 1.03 2.04.91 3.91 2.17 5.54 3.7 1.57 1.55 2.93 3.46 3.3 5.65z" fill="url(#H)"/><path d="m23.2698 34.84c6.4507 0 11.68-5.2293 11.68-11.68s-5.2293-11.68-11.68-11.68c-6.4506 0-11.68 5.2293-11.68 11.68s5.2294 11.68 11.68 11.68z" fill="url(#J)"/><path d="m41.9197 49.4696c-2.53-1.28-5.8199 3.8-11.1999 4.77-6.02 1.09-7.88-1.38-7.49-2.63 0 0-1.03-5.08 4.32-6.14 3.78-.75 12.1899-.35 14.3699 4z" fill="url(#K)"/><path d="m23.45 48.7396c1.08-1.12 2.87-2.19 5.82-2.62 7.17-1.03 10.1199 2.71 6.6899 2.36-3.03-.31-6.92 4.83-10.58 5.66 1.2.4 2.94.53 5.34.1 5.38-.97 8.67-6.05 11.2-4.77-2.18-4.35-10.59-4.75-14.37-4-2.55.5-3.6499 1.93-4.0999 3.27z" fill="url(#M)"/><path d="m23.9799 50.3896c-.32.32-.59.59-.8.83.03.24.05.38.05.38-.02.06-.03.11-.04.17-.03.23.04.5.21.77 1.05-2.24 5.31-4.42 9.45-4.67 0 0-5.66-.64-8.87 2.5z" fill="url(#N)"/><path d="m23.1099 51.0597c.04.33.08.52.08.52-.01.13-.01.28 0 .43.74-2.18 4.97-4.02 8.78-4.12.05 0 .89-.01.89-.01 0-.11-.73-.36-1.04-.34-4.27.22-7.32 1.95-8.71 3.52z" fill="url(#P)"/><path d="m35.88 50.9798c-.76 1.09-2.93 1.99-2.93 1.99l-1.07-.24s.35.54-.54.9c-4.36 1.76-6.26-.36-7.95-1.48l-.16.12c.3 1.28 2.42 2.89 7.5 1.98 5.38-.97 8.67-6.05 11.2-4.77-1.68-1.55-5.28.42-6.04 1.51z" fill="url(#Q)"/><path d="m28.6399 51.8098c.87.05 2.6.35 5.22 1.35.18-.09.37-.18.54-.28 0 0-.73-.42-1.54-.59-1.23-.26-3.12-.5-4.22-.48z" fill="url(#R)"/><path d="m33.87 53.1597c-.13.06-.26.12-.39.18.13-.06.26-.12.39-.18z" fill="#4b861c"/><path d="m32.7998 53.6397c.37-.14.72-.3 1.07-.47-5.08-1.95-6.81-1.25-5.45-1.17 1.33.08 3.59.69 4.38 1.65z" fill="url(#S)"/><path d="m36.11 50.8497.7.55c.26-.17.51-.34.75-.51-1.95-1.19-4.97-.98-5.84-.94l1.76.14 2.63.75z" fill="url(#T)"/><path d="m31.9698 50.1197c1.31.07 3.53.67 4.35 1.61.28-.18.55-.37.81-.54-4.86-1.81-6.49-1.14-5.15-1.06z" fill="url(#U)"/><path d="m23.9699 52.0694c-.97-2.92-12.03-12.19-20.58001-4.09 0 0 2.44-.27 4.8 2.43 1.75 2 4.18001 4.2 8.71001 3.73 5.11-.52 7.07-2.07 7.07-2.07z" fill="url(#W)"/><path d="m11.4199 45.4395c-2.48001-.41-4.97001 1.45-2.13001 2.13 2.45001.58 7.31001 4.33 10.95001.44.79.57 1.47 1.17 2.04 1.74l.93 2.77c-.98.5-2.97 1.28-6.31 1.62-4.53.46-6.96001-1.73-8.71001-3.73-2.36-2.7-4.8-2.43-4.8-2.43 3.21-3.05 6.78001-3.64 10.04001-3.03-.4.39-1.03.66-2.02.5z" fill="url(#X)"/><path d="m3.38988 47.9794c.19-.18.38-.35.57-.51 2.29-1.19 3.1.91 4.17 1.4s3.38002-.71 3.38002-.71c-.96 1.14-2.64002 1.44-2.64002 1.44s.83 1.7 2.38002 1.57c1.55-.13 4.25-2.43 4.25-2.43-.57 1.41-4.05 3.16-4.05 3.16 2.15.76 4.21-.23 5.69-1.59 1.1-1.01 2.19-1.94 3.5-1.98.35.27.67.54.97.81l-2.48 2.46-3.73 2.61c-3.59-.1-5.68002-2.02-7.22002-3.79-2.36-2.7-4.8-2.43-4.8-2.43z" fill="url(#Y)"/><g fill="#407817"><path d="m10.2198 51.6597c1.3.49 3.9-1.26 4.91-2.58.97-1.27.41 1.15-4.1 3.84-.5-.31-.95-.65-1.37-1.02-.02-.26.12-.41.56-.24z"/><path d="m7.91984 49.2194c.88.58 2.55996-.2099 3.41996-.9699.82-.74.18.8799-3.28996 2.0099-.24-.26-.47-.49-.71-.69.02-.35.15-.62.57-.34z"/><path d="m4.0399 47.9998h-.01c-.4-.05-.63-.02-.63-.02.1-.1.21-.19.31-.29.09-.08.17-.15.26-.23.45-.11 1.07-.12 1.87.18 1.93.74 3.84 4.36 5.84 4.84s5.4 1.38 9.45-.6c.84-.41 1.67-.54 2.44-.6.19.29.32.55.4.77 0 0-1.96 1.55-7.07 2.07-4.53.46-6.96-1.73-8.71-3.73-.66-.76-1.33-1.28-1.95-1.64-.14-.08-.27-.15-.41-.22-.2-.1-.39-.18-.57-.25-.48-.18-.9-.26-1.22-.3z"/></g><path d="m21.76 47.0399v10.1c0 .26.21.47.47.47h1.67c.26 0 .47-.21.47-.47v-10.26c-1.38-3.77-1.56-1.85-2.61.15z" fill="url(#Z)"/><path d="m24.3698 57.14v-10.26c-.58-1.6-.95-2.17-1.26-2.15.02.73.06 1.52.12 2.41.21 2.92-.02 6.39-1.39 10.24.08.13.22.23.39.23h1.67c.26 0 .47-.21.47-.47z" fill="#407817"/><path d="m21.76 40.0198v7.02c.74-1.11 1.35-1.66 1.75-1.46 0 0 .49.98.86 1.3v-6.87h-2.61z" fill="#407817"/><path d="m37.6701 41.7699c1.17-5.08-3.54-12.41-8.22-14.92s-6.35 3.09-6.35 3.09 4.55 11.63 14.57 11.82" fill="url(#ab)"/><path d="m8.86011 4.77979c-1.17 5.08 3.53999 12.41001 8.21999 14.92001s6.35-3.09 6.35-3.09-4.55-11.63001-14.56999-11.82001" fill="url(#ac)"/><path d="m4.77002 37.6799c5.08 1.17 12.40998-3.54 14.91998-8.22s-3.09-6.35-3.09-6.35-11.62998 4.55-11.81998 14.57" fill="url(#ad)"/><path d="m41.7601 8.86988c-5.08-1.17-12.41 3.54002-14.92 8.22002s3.09 6.35 3.09 6.35 11.63-4.55 11.82-14.57002" fill="url(#ae)"/><path d="m24.8401 27.0801c-1.23 1.11-1.73 2.79-1.73 2.79s4.55 11.63 14.57 11.82c0-.03.01-.07.02-.1-6.28-2.57-11.68-7.93-12.86-14.51z" fill="url(#ag)"/><path d="m22.9101 17.7602c.37-.68.53-1.22.53-1.22s-4.55-11.62999-14.56999-11.81999c0 .02 0 .04001-.01.07001 6.27999 2.09999 11.81999 6.76998 14.05999 12.97998z" fill="url(#ah)"/><path d="m11.34 27.9698c2.63-2.11 5.86-1.43 8.79-2.02-.79-2.09-3.52-2.9-3.52-2.9s-11.62996 4.55-11.81996 14.57h.02c.6-4.1 3.27-7.03 6.53996-9.65z" fill="url(#ai)"/><path d="m29.8501 22.0302c-.37.3-.79.54-1.24.75.73.41 1.34.59 1.34.59s9.4-3.68 11.44-11.71c-1.98 4.44-7.81 6.94-11.53 10.37z" fill="url(#ah)"/><path d="m37.8 41.0302c-2.13-3.68-6.1-6.28-8.67-10.28-.35-.35-1.4.35-1.4.7 2.88 3.4 7.32 6.21 8.49 10.2.47.06.95.11 1.45.12.06-.24.09-.49.12-.74z" fill="url(#ak)"/><path d="m17.9499 15.0398c0-.35.7-.7.35-1.05-4.08-2.72-8.37998-5.02001-9.40998-9.21001h-.04c-.12.52-.18 1.06-.18 1.62 1.72998 4.28001 4.88998 8.05001 9.27998 8.63001z" fill="url(#al)"/><path d="m7.48002 34.95c2.1-2.44 8.54998-2.55 8.88998-6.74-1.06-.42-2.17-.05-2.87.3-3.08 2.52-5.49998 5.48-8.57998 7.46-.09.55-.14 1.13-.15 1.72.17.04.35.07.52.1.03-.01.06-.03.09-.04.7-.7 1.4-1.75 2.1-2.79z" fill="url(#am)"/><path d="m34.0201 12.9498c-1.4.7-3.14 3.14-2.1 3.84 3.49 1.05 5.94-3.14 8.73-5.24.95-.64.89-1.63003.71-2.76003-.07-.01-.14-.02-.22-.03-1.51 2.44003-4.79 2.52003-7.13 4.19003z" fill="url(#an)"/><path d="m37.6701 41.7698c.33-2.19-.25-4.35-1.15-6.3-.91-1.95-2.14-3.76-3.64-5.3-.73-.79-1.52-1.51-2.39-2.11-.86-.6-1.79-1.16-2.75-1.32s-1.9.13-2.61.82c-.72.65-1.26 1.6-1.59 2.53v-.31c.59 1.47 1.4 2.91 2.3 4.25.92 1.33 1.94 2.6 3.11 3.73 1.17 1.12 2.53 2.03 3.98 2.76 1.46.74 3.08 1.06 4.72 1.26-1.65 0-3.33-.23-4.89-.87-1.56-.63-3-1.54-4.28-2.64-1.26-1.11-2.4-2.37-3.36-3.75s-1.81-2.82-2.48-4.4l-.07-.15.05-.16c.38-1.13.94-2.16 1.83-3 .88-.85 2.24-1.25 3.45-1.01 1.21.23 2.2.88 3.11 1.53.92.66 1.74 1.44 2.49 2.27 1.48 1.68 2.66 3.6 3.5 5.66.79 2.06 1.23 4.36.66 6.51z" fill="url(#ap)"/><path d="m8.85995 4.78002c-.33 2.19.25 4.35 1.14995 6.29998.91 1.95 2.14 3.76 3.63 5.3.73.79 1.52 1.51 2.39 2.11.86.6 1.79 1.16 2.75 1.32s1.9-.13 2.61-.82c.72-.65 1.26-1.6 1.59-2.53v.31c-.59-1.47-1.4-2.91-2.3-4.25-.92-1.33-1.94-2.59998-3.11-3.72998-1.17-1.12-2.53-2.03-3.98-2.76-1.46-.74-3.08-1.06-4.71995-1.26 1.64995 0 3.32995.23 4.88995.87 1.56.63 3 1.54 4.28 2.64 1.26 1.11 2.4 2.36998 3.36 3.74998s1.81 2.82 2.48 4.4l.07.15-.05.16c-.38 1.13-.94 2.16-1.83 3-.88.84-2.24 1.25-3.45 1.01-1.21-.23-2.2-.88-3.11-1.53-.92-.66-1.74-1.44-2.49-2.27-1.48-1.68-2.66-3.6-3.49995-5.66-.79-2.05998-1.23-4.35998-.66-6.50998z" fill="url(#aq)"/><path d="m4.77001 37.6798c2.19.33 4.35-.25 6.29999-1.15 1.95-.91 3.76-2.14 5.3-3.63.79-.73 1.51-1.52 2.11-2.39.6-.86 1.16-1.79 1.32-2.75s-.13-1.9-.82-2.61c-.65-.72-1.6-1.26-2.53-1.59h.31c-1.47.59-2.91 1.4-4.25 2.3-1.33.92-2.59999 1.94-3.72999 3.11-1.12 1.17-2.03 2.53-2.76 3.98-.74 1.46-1.06 3.08-1.26 4.72 0-1.65.23-3.33.87-4.89.63-1.56 1.54-3 2.64-4.28 1.11-1.26 2.36999-2.4 3.74999-3.36s2.82-1.81 4.4-2.48l.15-.07.16.05c1.13.38 2.16.94 3 1.83.85.88 1.25 2.24 1.01 3.45-.23 1.22-.88 2.2-1.53 3.11-.66.92-1.44 1.74-2.27 2.49-1.68 1.48-3.6 2.66-5.66 3.5-2.05999.79-4.35999 1.23-6.50999.66z" fill="url(#ar)"/><path d="m41.76 8.86996c-2.19-.33-4.35.25-6.3 1.15004-1.95.91-3.76 2.14-5.3 3.63-.79.73-1.51 1.52-2.11 2.39-.6.86-1.16 1.79-1.32 2.75s.13 1.9.82 2.61c.65.72 1.6 1.26 2.53 1.59h-.31c1.47-.59 2.91-1.4 4.25-2.3 1.33-.92 2.6-1.94 3.73-3.11 1.12-1.17 2.03-2.53 2.76-3.98.74-1.46 1.06-3.08 1.26-4.72004 0 1.65004-.23 3.33004-.87 4.89004-.63 1.56-1.54 3-2.64 4.28-1.11 1.26-2.37 2.4-3.75 3.36s-2.82 1.81-4.4 2.48l-.15.07-.16-.05c-1.13-.38-2.16-.94-3-1.83-.85-.88-1.25-2.24-1.01-3.45.23-1.22.88-2.2 1.53-3.11.66-.92 1.44-1.74 2.27-2.49 1.68-1.48 3.6-2.66 5.66-3.50004 2.06-.79 4.36-1.23 6.51-.66z" fill="url(#as)"/><path d="m26.15.01c-4.42 2.76-6.27 11.28-4.73 16.36s6.68 2.3 6.68 2.3 5.01-11.44-1.94-18.67" fill="url(#at)"/><path d="m20.38 46.5402c4.42-2.76 6.27-11.28 4.73-16.36s-6.68-2.3-6.68-2.3-5.01 11.44 1.94 18.67" fill="url(#au)"/><path d="m46.53 26.1602c-2.76-4.42-11.28-6.27-16.36-4.73s-2.3 6.68-2.3 6.68 11.44 5.01 18.67-1.94" fill="url(#av)"/><path d="m0 20.3899c2.76 4.42 11.28 6.27 16.36 4.73s2.3-6.68 2.3-6.68c.01 0-11.44-5.01-18.66 1.95z" fill="url(#aw)"/><path d="m28.43 3.18994c.02.11.03.22.03.33-.3 5.17 1.84 5.16-1.73 15.61996.82-.22 1.39-.53 1.39-.53s3.69-8.45.32-15.40996z" fill="url(#ax)"/><path d="m20.88 27.0801c-1.33.14-2.43.73-2.43.73s-5.01 11.44 1.94 18.67h.02c-3.08-6.36-3.29-13.41.47-19.4z" fill="url(#ay)"/><path d="m27.26 26.31c.22 1 .62 1.73.62 1.73s11.44 5.01 18.67-1.94c-.01-.02-.03-.04-.04-.06-5.94 1.91-13.34 2.84-19.24.27z" fill="url(#az)"/><path d="m.01 20.32s.06.09.09.14c5.87-3.12 14.21-4.34 19.23-.16-.21-1.09-.66-1.92-.66-1.92s-11.44-5.01-18.67 1.94z" fill="url(#aA)"/><path d="m23.5399 10.8498c-.35.7.35 1.4.35 2.1.7-.7 2.44 0 2.44-1.05.51-3.57003 1.58-8.07003.07-11.600034-.09-.1-.17-.19-.26-.29000038-.13.07999998-.27.17000038-.4.27000038 1.17 3.750004.6 7.440004-2.21 10.570034z" fill="url(#al)"/><path d="m21.1 30.7598c-.7 0-1.4.7-2.1 1.05 2.23 4.46 2.9 9.59.42 13.61.26.34.54.68.84 1 3.09-4.49.84-10.64.84-15.66z" fill="url(#aB)"/><path d="m45.69 25.0699c-4.55-.62-8.81-3.22-13.06-.6-.35.35.7 1.05.7 1.05 3.49 1.05 7.68-1.75 10.83 1.75.33.17.66.17 1 .06.48-.34.94-.73 1.39-1.16-.24-.38-.52-.75-.84-1.09z" fill="url(#aC)"/><path d="m12.37 20.9802c-3.66995-.24-6.64995-1.01-9.30995-2.76-.96.49-1.89 1.11-2.760001 1.9 4.210001.93 8.960001 4.89 12.069951.86z" fill="url(#aD)"/><path d="m26.15.00976562c-1.78 1.31000438-2.9 3.25000438-3.64 5.27000438-.74 2.03-1.14 4.17-1.18 6.32003-.04 1.07 0 2.14.19 3.18.18 1.04.44 2.09 1.01 2.88s1.44 1.25 2.42 1.27c.97.05 2.02-.24 2.91-.67l-.21.23c.61-1.46 1.06-3.06 1.37-4.64.29-1.59.47-3.21.44-4.83003-.04-1.62-.36-3.22-.87-4.77-.5-1.57-1.42-2.94-2.44-4.24000438 1.16 1.17000438 2.19 2.52000438 2.85 4.07000438.66 1.54 1.03 3.21 1.16 4.89.11 1.68003.02 3.37003-.27 5.03003-.3 1.66-.72 3.27-1.35 4.87l-.06.15-.15.07c-1.07.53-2.19.86-3.41.83-1.22-.02-2.47-.7-3.15-1.72-.69-1.02-.93-2.18-1.12-3.28-.18-1.12-.21-2.25-.15-3.36.14-2.23003.66-4.43003 1.53-6.48003.89-2.02 2.2-3.96 4.12-5.07000438z" fill="url(#aE)"/><path d="m20.3801 46.54c1.78-1.31 2.9-3.25 3.64-5.27.74-2.03 1.14-4.17 1.18-6.32.04-1.07 0-2.1399-.19-3.1799-.18-1.04-.44-2.0901-1.01-2.8801s-1.44-1.2499-2.42-1.2699c-.97-.05-2.02.24-2.91.67l.21-.2301c-.61 1.46-1.06 3.06-1.37 4.64-.29 1.59-.47 3.2101-.44 4.8301.04 1.62.36 3.22.87 4.77.51 1.56 1.43 2.93 2.45 4.23-1.16-1.17-2.19-2.5201-2.85-4.07-.66-1.54-1.03-3.21-1.16-4.89-.11-1.68-.02-3.3701.27-5.0301.3-1.66.72-3.2699 1.35-4.8699l.06-.15.15-.07c1.07-.53 2.19-.86 3.41-.83 1.22.02 2.47.7 3.15 1.72.69 1.02.93 2.18 1.12 3.28.18 1.12.21 2.25.15 3.36-.14 2.23-.66 4.43-1.53 6.48-.9 2.01-2.21 3.9599-4.14 5.07z" fill="url(#aF)"/><path d="m46.53 26.1598c-1.31-1.78-3.25-2.9-5.27-3.64-2.03-.74-4.17-1.14-6.32-1.18-1.07-.04-2.14 0-3.18.19-1.04.18-2.09.44-2.88 1.01s-1.25 1.44-1.27 2.42c-.05.97.24 2.02.67 2.91l-.23-.21c1.46.61 3.06 1.06 4.64 1.37 1.6.29 3.21.47 4.83.44 1.62-.04 3.22-.36 4.77-.87 1.56-.51 2.93-1.43 4.23-2.45-1.17 1.16-2.52 2.19-4.07 2.85-1.54.66-3.21 1.03-4.89 1.16-1.68.11-3.37.02-5.03-.27-1.66-.3-3.27-.72-4.87-1.35l-.15-.06-.07-.15c-.53-1.07-.86-2.19-.83-3.41.02-1.22.7-2.47 1.72-3.15 1.02-.69 2.18-.93 3.28-1.12 1.12-.18 2.25-.21 3.36-.15 2.23.14 4.43.66 6.48 1.53 2.01.9 3.96 2.21 5.07 4.14z" fill="url(#aG)"/><path d="m0 20.3901c1.31 1.78 3.25 2.9 5.27 3.64 2.03.74 4.17 1.14 6.32 1.18 1.07.04 2.14 0 3.18-.19 1.04-.18 2.09-.44 2.88-1.01s1.25-1.44 1.27-2.42c.05-.97-.24-2.02-.67-2.91l.23.21c-1.46-.61-3.06-1.06-4.64-1.37-1.6-.29-3.21-.47-4.83-.44-1.62.04-3.22.36-4.77.87-1.56.51-2.93 1.43-4.23 2.45 1.17-1.16 2.52-2.19 4.07-2.85 1.54-.66 3.21-1.03 4.89-1.16 1.68-.11 3.37-.02 5.03.27 1.66.3 3.27.72 4.87 1.35l.15.06.07.15c.53 1.07.86 2.19.83 3.41-.02 1.22-.7 2.47-1.72 3.15-1.02.69-2.18.93-3.28 1.12-1.12.18-2.25.21-3.36.15-2.23-.14-4.43-.66-6.48-1.53-2.01-.9-3.96-2.21-5.07-4.14z" fill="url(#aH)"/><path d="m17.0659 13.4335c.5119-.438-.4963-2.4567-2.2521-4.50875-1.7557-2.05208-3.5941-3.36051-4.106-2.92248-.512.43804.4963 2.45668 2.252 4.50873 1.7557 2.0521 3.5941 3.3605 4.1061 2.9225z" fill="url(#aJ)" opacity=".5"/><path d="m21.4802 45.2147c.4952-.4236-.0465-1.8693-1.2098-3.229-1.1633-1.3596-2.5078-2.1184-3.0029-1.6947-.4952.4236.0464 1.8693 1.2097 3.229 1.1633 1.3596 2.5078 2.1184 3.003 1.6947z" fill="url(#aK)" opacity=".5"/><path d="m28.9323 8.55928c.5264-2.64887.4174-4.90267-.2435-5.03401-.6608-.13133-1.6233 1.90954-2.1497 4.55841-.5264 2.64882-.4174 4.90272.2434 5.03402.6609.1313 1.6234-1.9095 2.1498-4.55842z" fill="url(#aL)" opacity=".5"/><path d="m37.6473 16.0912c2.1463-1.6392 3.5547-3.4021 3.1457-3.9376s-2.4804.3593-4.6267 1.9985-3.5547 3.4021-3.1458 3.9376c.409.5355 2.4804-.3593 4.6268-1.9985z" fill="url(#aM)" opacity=".5"/><path d="m23.2701 36.0001c6.4507 0 11.68-5.2293 11.68-11.68 0-6.4506-5.2293-11.68-11.68-11.68s-11.68 5.2294-11.68 11.68c0 6.4507 5.2293 11.68 11.68 11.68z" fill="url(#aN)"/><path d="m23.2701 34.9601c6.4507 0 11.68-5.2293 11.68-11.68s-5.2293-11.68-11.68-11.68-11.68 5.2293-11.68 11.68 5.2293 11.68 11.68 11.68z" fill="url(#aO)"/><path d="m23.5101 24.2204c.5026 0 .91-.4074.91-.91s-.4074-.91-.91-.91-.91.4074-.91.91.4074.91.91.91z" fill="url(#aP)"/><path d="m23.46 21.59c.5026 0 .9101-.4074.9101-.91s-.4075-.91-.9101-.91c-.5025 0-.91.4074-.91.91s.4075.91.91.91z" fill="url(#aQ)"/><path d="m23.5101 19.1403c.5026 0 .91-.4074.91-.91s-.4074-.91-.91-.91-.91.4074-.91.91.4074.91.91.91z" fill="url(#aR)"/><path d="m17.2301 22.34c.5025 0 .91-.4074.91-.91s-.4075-.91-.91-.91c-.5026 0-.91.4074-.91.91s.4074.91.91.91z" fill="url(#aS)"/><path d="m14.5301 21.4401c.5026 0 .91-.4074.91-.91s-.4074-.91-.91-.91-.91.4074-.91.91.4074.91.91.91z" fill="url(#aT)"/><path d="m23.5101 16.6003c.5026 0 .91-.4074.91-.91s-.4074-.91-.91-.91-.91.4074-.91.91.4074.91.91.91z" fill="url(#aU)"/><path d="m23.5101 14.0602c.5026 0 .91-.4074.91-.91 0-.5025-.4074-.91-.91-.91s-.91.4075-.91.91c0 .5026.4074.91.91.91z" fill="url(#aV)"/><path d="m23.5101 26.7604c.5026 0 .91-.4074.91-.91 0-.5025-.4074-.91-.91-.91s-.91.4075-.91.91c0 .5026.4074.91.91.91z" fill="url(#aW)"/><path d="m26.4139 25.0625c.2662-.4263.1365-.9877-.2897-1.2539-.4263-.2663-.9877-.1365-1.2539.2897-.2663.4263-.1366.9877.2897 1.2539.4262.2663.9876.1366 1.2539-.2897z" fill="url(#aX)"/><path d="m25.64 22.7804c.5026 0 .91-.4074.91-.91 0-.5025-.4074-.91-.91-.91s-.91.4075-.91.91c0 .5026.4074.91.91.91z" fill="url(#aY)"/><path d="m21.8636 25.3488c.4262-.2663.5558-.8277.2895-1.2539s-.8277-.5559-1.2539-.2895c-.4262.2663-.5559.8277-.2895 1.2539.2663.4262.8277.5558 1.2539.2895z" fill="url(#aZ)"/><path d="m24.0206 29.144c.4181-.2788.531-.8439.2521-1.262-.2788-.4181-.8438-.531-1.262-.2521-.4181.2788-.531.8438-.2521 1.2619.2788.4182.8438.5311 1.262.2522z" fill="url(#a0)"/><path d="m24.0198 31.687c.4181-.2789.531-.8439.2522-1.262-.2789-.4181-.8439-.531-1.262-.2522-.4181.2789-.531.8439-.2522 1.262.2789.4181.8439.531 1.262.2522z" fill="url(#a1)"/><path d="m24.0193 34.23c.4182-.2789.5311-.8439.2522-1.262-.2788-.4182-.8439-.5311-1.262-.2522-.4181.2788-.531.8439-.2522 1.262.2789.4181.8439.531 1.262.2522z" fill="url(#a2)"/><path d="m24.256 23.8346c.2905-.4101.1937-.978-.2164-1.2686s-.9781-.1937-1.2686.2164c-.2906.4101-.1937.978.2164 1.2686.41.2906.978.1937 1.2686-.2164z" fill="url(#a3)"/><path d="m28.5048 21.0592c.2905-.41.1936-.978-.2164-1.2686-.4101-.2905-.9781-.1937-1.2686.2164-.2906.4101-.1937.9781.2164 1.2686.41.2906.978.1937 1.2686-.2164z" fill="url(#a4)"/><path d="m30.632 19.6681c.2905-.4101.1936-.978-.2164-1.2686-.4101-.2906-.9781-.1937-1.2686.2164-.2906.4101-.1937.978.2164 1.2686.41.2906.978.1937 1.2686-.2164z" fill="url(#a5)"/><path d="m32.7594 18.2765c.2906-.4101.1937-.978-.2164-1.2686s-.978-.1937-1.2686.2164-.1937.978.2164 1.2686.978.1937 1.2686-.2164z" fill="url(#a6)"/><path d="m20.0236 26.5744c.2702-.4238.1457-.9864-.2781-1.2565-.4238-.2702-.9864-.1457-1.2565.2781-.2702.4237-.1457.9863.2781 1.2565.4237.2702.9863.1457 1.2565-.2781z" fill="url(#a7)"/><path d="m17.8908 27.9675c.2702-.4238.1457-.9864-.2781-1.2566s-.9864-.1456-1.2565.2781c-.2702.4238-.1457.9864.2781 1.2566.4237.2701.9863.1456 1.2565-.2781z" fill="url(#a8)"/><path d="m15.7677 29.3508c.2702-.4238.1457-.9864-.2781-1.2566-.4237-.2702-.9863-.1456-1.2565.2781-.2702.4238-.1457.9864.2781 1.2566.4238.2701.9864.1456 1.2565-.2781z" fill="url(#a9)"/><path d="m19.8028 21.2748c.41-.2906.5069-.8585.2164-1.2686-.2906-.4101-.8586-.507-1.2686-.2164-.4101.2906-.507.8585-.2164 1.2686.2905.4101.8585.507 1.2686.2164z" fill="url(#ba)"/><path d="m17.6712 19.8822c.4101-.2905.5069-.8585.2164-1.2686-.2906-.4101-.8586-.5069-1.2686-.2164-.4101.2906-.507.8586-.2164 1.2686.2905.4101.8585.507 1.2686.2164z" fill="url(#bb)"/><path d="m15.5396 18.4994c.4101-.2905.5069-.8585.2164-1.2686-.2906-.4101-.8586-.5069-1.2686-.2164-.4101.2906-.507.8586-.2164 1.2686.2905.4101.8585.507 1.2686.2164z" fill="url(#bc)"/><path d="m28.2684 26.8457c.4238-.2702.5483-.8327.2781-1.2565-.2701-.4238-.8327-.5483-1.2565-.2781s-.5483.8327-.2781 1.2565.8328.5483 1.2565.2781z" fill="url(#bd)"/><path d="m30.3934 28.2378c.4238-.2702.5483-.8327.2781-1.2565-.2701-.4238-.8327-.5483-1.2565-.2781s-.5483.8327-.2781 1.2565.8328.5483 1.2565.2781z" fill="url(#be)"/><path d="m32.5167 29.625c.4238-.2702.5483-.8327.2781-1.2565-.2701-.4238-.8327-.5483-1.2565-.2781s-.5483.8327-.2781 1.2565.8328.5483 1.2565.2781z" fill="url(#bf)"/><path d="m27.96 24.2204c.5026 0 .9101-.4074.9101-.91s-.4075-.91-.9101-.91c-.5025 0-.91.4074-.91.91s.4075.91.91.91z" fill="url(#bg)"/><path d="m31.13 24.2204c.5025 0 .91-.4074.91-.91s-.4075-.91-.91-.91c-.5026 0-.91.4074-.91.91s.4074.91.91.91z" fill="url(#bh)"/><path d="m33.9901 24.2204c.5026 0 .91-.4074.91-.91s-.4074-.91-.91-.91-.91.4074-.91.91.4074.91.91.91z" fill="url(#bi)"/><path d="m19.569 24.0702c.4201-.2758.537-.84.2611-1.2601-.2758-.4202-.84-.5371-1.2601-.2612-.4201.2758-.537.84-.2612 1.2601.2759.4201.84.5371 1.2602.2612z" fill="url(#bj)"/><path d="m16.3907 24.0756c.4201-.2759.5371-.8401.2612-1.2602-.2758-.4201-.84-.537-1.2601-.2612-.4201.2759-.5371.8401-.2612 1.2602.2758.4201.84.537 1.2601.2612z" fill="url(#bk)"/><path d="m13.5301 24.0756c.4201-.2759.5371-.8401.2612-1.2602-.2758-.4201-.84-.537-1.2601-.2612-.4201.2759-.5371.8401-.2612 1.2602.2758.4201.84.537 1.2601.2612z" fill="url(#bl)"/><path d="m26.1652 28.6614c.478-.1552.7396-.6686.5844-1.1466s-.6685-.7397-1.1465-.5844c-.478.1552-.7397.6685-.5845 1.1465s.6686.7397 1.1466.5845z" fill="url(#bm)"/><path d="m27.3619 30.9041c.4781-.1553.7397-.6686.5845-1.1466s-.6686-.7397-1.1466-.5845c-.478.1553-.7396.6686-.5844 1.1466s.6685.7397 1.1465.5845z" fill="url(#bn)"/><path d="m28.5455 33.1467c.478-.1552.7397-.6685.5845-1.1465s-.6686-.7397-1.1466-.5845-.7396.6686-.5844 1.1466.6685.7397 1.1465.5844z" fill="url(#bo)"/><path d="m21.5415 19.6351c.4486-.2266.6286-.774.402-1.2225-.2266-.4486-.774-.6286-1.2226-.402s-.6285.774-.4019 1.2226c.2266.4485.7739.6285 1.2225.4019z" fill="url(#bp)"/><path d="m20.3494 17.3919c.4486-.2266.6286-.7739.402-1.2225s-.774-.6286-1.2226-.402-.6286.774-.4019 1.2226c.2266.4486.7739.6285 1.2225.4019z" fill="url(#bq)"/><path d="m19.1629 15.1405c.4486-.2266.6285-.774.4019-1.2226s-.7739-.6285-1.2225-.4019-.6286.7739-.402 1.2225.774.6286 1.2226.402z" fill="url(#br)"/><path d="m21.9933 28.074c.1552-.478-.1065-.9913-.5845-1.1465s-.9913.1064-1.1465.5844c-.1553.478.1064.9914.5844 1.1466s.9914-.1065 1.1466-.5845z" fill="url(#bs)"/><path d="m20.8058 30.3211c.1552-.478-.1065-.9913-.5845-1.1466-.478-.1552-.9913.1065-1.1465.5845-.1553.478.1064.9913.5844 1.1466.478.1552.9914-.1065 1.1466-.5845z" fill="url(#bt)"/><path d="m19.6088 32.5648c.1552-.478-.1065-.9914-.5845-1.1466s-.9913.1064-1.1466.5845c-.1552.478.1065.9913.5845 1.1465s.9913-.1064 1.1466-.5844z" fill="url(#bu)"/><path d="m26.705 19.2325c.2266-.4486.0466-.996-.402-1.2226s-.9959-.0466-1.2225.402-.0467.9959.4019 1.2225.996.0467 1.2226-.4019z" fill="url(#bv)"/><path d="m27.9022 16.9903c.2266-.4486.0467-.996-.4019-1.2226s-.996-.0466-1.2226.402-.0466.9959.402 1.2225.9959.0467 1.2225-.4019z" fill="url(#bw)"/><path d="m29.0805 14.7437c.2266-.4486.0466-.996-.402-1.2226s-.9959-.0466-1.2225.402-.0467.9959.4019 1.2226c.4486.2266.996.0466 1.2226-.402z" fill="url(#bx)"/><path d="m17.6097 25.9403c.4077-.2843.5053-.8489.2179-1.2612s-.851-.5161-1.2587-.2319c-.4078.2843-.5053.8489-.2179 1.2612s.8509.5161 1.2587.2319z" fill="url(#by)"/><path d="m15.0665 27.1961c.4077-.2842.5053-.8489.2179-1.2612-.2874-.4122-.851-.516-1.2587-.2318-.4078.2842-.5054.8489-.218 1.2612.2875.4123.851.5161 1.2588.2318z" fill="url(#bz)"/><path d="m29.7999 22.34c.5026 0 .91-.4074.91-.91s-.4074-.91-.91-.91-.91.4074-.91.91.4074.91.91.91z" fill="url(#bA)"/><path d="m32.5001 21.4401c.5026 0 .91-.4074.91-.91s-.4074-.91-.91-.91-.91.4074-.91.91.4074.91.91.91z" fill="url(#bB)"/><path d="m30.6606 25.7013c.2874-.4123.1898-.977-.2179-1.2612-.4078-.2843-.9713-.1805-1.2587.2318s-.1899.977.2179 1.2612c.4078.2843.9713.1805 1.2587-.2318z" fill="url(#bC)"/><path d="m33.2067 26.9581c.2874-.4123.1899-.9769-.2179-1.2612-.4077-.2842-.9713-.1804-1.2587.2319s-.1898.9769.2179 1.2612c.4078.2842.9713.1804 1.2587-.2319z" fill="url(#bD)"/><path d="m21.38 22.7804c.5025 0 .91-.4074.91-.91 0-.5025-.4075-.91-.91-.91-.5026 0-.91.4075-.91.91 0 .5026.4074.91.91.91z" fill="url(#bE)"/><path d="m14.5301 21.4401c.5026 0 .91-.4074.91-.91s-.4074-.91-.91-.91-.91.4074-.91.91.4074.91.91.91z" fill="url(#aT)"/><path d="m32.5001 21.4401c.5026 0 .91-.4074.91-.91s-.4074-.91-.91-.91-.91.4074-.91.91.4074.91.91.91z" fill="url(#bB)"/><path d="m29.5599 30.9504c.5026 0 .91-.4074.91-.91s-.4074-.91-.91-.91-.91.4074-.91.91.4074.91.91.91z" fill="url(#bF)"/><path d="m25.7 32.8801c.5026 0 .91-.4075.91-.91 0-.5026-.4074-.91-.91-.91-.5025 0-.91.4074-.91.91 0 .5025.4075.91.91.91z" fill="url(#bG)"/><path d="m21.13 32.9001c.5025 0 .91-.4074.91-.91s-.4075-.91-.91-.91c-.5026 0-.91.4074-.91.91s.4074.91.91.91z" fill="url(#bH)"/><path d="m17.4701 30.7902c.5025 0 .91-.4074.91-.91s-.4075-.91-.91-.91c-.5026 0-.91.4074-.91.91s.4074.91.91.91z" fill="url(#bI)"/><path d="m17.2301 17.2502c.5025 0 .91-.4074.91-.91s-.4075-.91-.91-.91c-.5026 0-.91.4074-.91.91s.4074.91.91.91z" fill="url(#bJ)"/><path d="m21.63 15.6901c.5025 0 .91-.4074.91-.91s-.4075-.91-.91-.91c-.5026 0-.91.4074-.91.91s.4074.91.91.91z" fill="url(#bK)"/><path d="m29.5599 17.61c.5026 0 .91-.4074.91-.91 0-.5025-.4074-.91-.91-.91s-.91.4075-.91.91c0 .5026.4074.91.91.91z" fill="url(#bL)"/><path d="m25.5201 15.3005c.5026 0 .91-.4075.91-.91 0-.5026-.4074-.91-.91-.91s-.91.4074-.91.91c0 .5025.4074.91.91.91z" fill="url(#bM)"/><path d="m25.14 17.11c.2264 0 .41-.1835.41-.41 0-.2264-.1836-.41-.41-.41-.2265 0-.41.1836-.41.41 0 .2265.1835.41.41.41z" fill="url(#bN)"/><path d="m25.0201 20.6701c.2264 0 .41-.1836.41-.41s-.1836-.41-.41-.41-.41.1836-.41.41.1836.41.41.41z" fill="url(#bO)"/><path d="m21.86 20.6701c.2264 0 .41-.1836.41-.41s-.1836-.41-.41-.41c-.2265 0-.41.1836-.41.41s.1835.41.41.41z" fill="url(#bP)"/><path d="m25.0201 26.6701c.2264 0 .41-.1836.41-.41s-.1836-.41-.41-.41-.41.1836-.41.41.1836.41.41.41z" fill="url(#bQ)"/><path d="m21.86 26.6701c.2264 0 .41-.1836.41-.41s-.1836-.41-.41-.41c-.2265 0-.41.1836-.41.41s.1835.41.41.41z" fill="url(#bR)"/><path d="m22.0401 17.2702c.2265 0 .41-.1836.41-.41s-.1835-.41-.41-.41c-.2264 0-.41.1836-.41.41s.1836.41.41.41z" fill="url(#bS)"/><path d="m19.0699 18.82c.2264 0 .41-.1836.41-.41s-.1836-.41-.41-.41-.41.1836-.41.41.1836.41.41.41z" fill="url(#bT)"/><path d="m19.13 28.5304c.2264 0 .41-.1835.41-.41 0-.2264-.1836-.41-.41-.41-.2265 0-.41.1836-.41.41 0 .2265.1835.41.41.41z" fill="url(#bU)"/><path d="m22.4501 29.8802c0 .23-.18.41-.41.41s-.41-.18-.41-.41.18-.41.41-.41.41.18.41.41z" fill="url(#bV)"/><path d="m25.14 30.2204c.2264 0 .41-.1836.41-.41s-.1836-.41-.41-.41c-.2265 0-.41.1836-.41.41s.1835.41.41.41z" fill="url(#bW)"/><path d="m28.17 28.61c.2264 0 .41-.1835.41-.41 0-.2264-.1836-.41-.41-.41s-.41.1836-.41.41c0 .2265.1836.41.41.41z" fill="url(#bX)"/><path d="m32.4701 25.0304c.2264 0 .41-.1835.41-.41 0-.2264-.1836-.41-.41-.41-.2265 0-.41.1836-.41.41 0 .2265.1835.41.41.41z" fill="url(#bY)"/><path d="m14.5499 25.0304c.2264 0 .41-.1835.41-.41 0-.2264-.1836-.41-.41-.41s-.41.1836-.41.41c0 .2265.1836.41.41.41z" fill="url(#bZ)"/><path d="m14.5499 22.5803c.2264 0 .41-.1836.41-.41 0-.2265-.1836-.41-.41-.41s-.41.1835-.41.41c0 .2264.1836.41.41.41z" fill="url(#b0)"/><path d="m32.43 22.5803c.2265 0 .41-.1836.41-.41 0-.2265-.1835-.41-.41-.41-.2264 0-.41.1835-.41.41 0 .2264.1836.41.41.41z" fill="url(#b1)"/><path d="m27.96 18.9601c.2265 0 .4101-.1835.4101-.41 0-.2264-.1836-.41-.4101-.41-.2264 0-.41.1836-.41.41 0 .2265.1836.41.41.41z" fill="url(#b2)"/><path d="m29.5599 23.7204c.2264 0 .41-.1836.41-.41s-.1836-.41-.41-.41-.41.1836-.41.41.1836.41.41.41z" fill="url(#b3)"/><path d="m26.5101 23.6301c.2264 0 .41-.1836.41-.41 0-.2265-.1836-.41-.41-.41s-.41.1835-.41.41c0 .2264.1836.41.41.41z" fill="url(#b4)"/><path d="m17.64 23.7204c.2264 0 .41-.1836.41-.41s-.1836-.41-.41-.41c-.2265 0-.41.1836-.41.41s.1835.41.41.41z" fill="url(#b5)"/><path d="m20.64 23.6301c.2264 0 .41-.1836.41-.41 0-.2265-.1836-.41-.41-.41-.2265 0-.41.1835-.41.41 0 .2264.1835.41.41.41z" fill="url(#b6)"/></svg>